<?xml version="1.0" encoding="UTF-8"?>
<!-- Generator: Adobe Illustrator 26.3.1, SVG Export Plug-In . SVG Version: 6.00 Build 0)  -->
<svg version="1.1" id="Capa_1" xmlns="http://www.w3.org/2000/svg" xmlns:xlink="http://www.w3.org/1999/xlink" x="0px" y="0px" viewBox="0 0 1888.85 378.4" style="enable-background:new 0 0 1888.85 378.4;" xml:space="preserve">
<style type="text/css">
	.st0{fill:#FC4575;}
	.st1{fill:#0043FF;}
</style>
<g>
	<g>
		<path class="st0" d="M468.7,364.93c71.38-71.38,69.8-188.68-1.58-260.06s-185.64-69.8-256.93,1.58l0,0    c-17.1,17.05-17.15,44.73-0.1,61.83c17.05,17.1,44.73,17.15,61.83,0.1l0,0c37.23-37.23,97.6-37.23,134.83,0s37.23,97.6,0,134.83    c-17.08,17.08-17.08,44.76,0,61.84s44.76,17.08,61.84,0L468.7,364.93z"/>
		<circle class="st1" cx="527.18" cy="47.94" r="47.94"/>
		<path class="st1" d="M106.42,13.44C35.04,84.82,36.62,202.12,108,273.5s185.52,69.83,256.93-1.55l0,0    c17.11-17.05,17.16-44.73,0.11-61.84C348,193,320.31,192.95,303.2,210c-37.63,36.83-97.98,36.18-134.81-1.44    c-36.27-37.05-36.27-96.29-0.01-133.35c17.08-17.08,17.08-44.76,0-61.84s-44.76-17.08-61.84,0L106.42,13.44z"/>
		<circle class="st0" cx="47.94" cy="330.46" r="47.94"/>
	</g>
	<g>
		<path class="st1" d="M920.79,95.29h-31.91c-4.17,0.01-7.56,3.36-7.64,7.53v10.43c-16.06-15.17-36.71-22.98-61.73-22.98    c-27-0.32-52.86,10.81-71.2,30.62c-19.26,19.7-29.8,46.3-29.27,73.85c-0.48,27.55,10.06,54.15,29.27,73.9    c18.39,19.7,44.26,30.69,71.2,30.25c25.02,0,45.7-7.67,61.73-22.81v10.4c0,4.22,3.42,7.64,7.64,7.64l0,0h31.91    c4.22,0,7.64-3.42,7.64-7.64v0V102.81C928.35,98.65,924.95,95.3,920.79,95.29z M864.86,236.29    c-10.84,10.96-25.75,16.91-41.16,16.43c-15.28,0.46-30.05-5.49-40.76-16.4c-11.02-11-17.06-26.03-16.72-41.59    c-0.48-15.48,5.53-30.45,16.57-41.3c22.73-22.38,59.22-22.38,81.95,0c11.02,10.86,17,25.84,16.49,41.3    C881.66,210.23,875.74,225.24,864.86,236.29z"/>
		<path class="st1" d="M1008.02,294.08h-31.94c-4.22,0-7.64-3.42-7.64-7.64v0V102.81c0.02-4.21,3.43-7.62,7.64-7.64h31.94    c4.21,0.02,7.62,3.43,7.64,7.64v183.63C1015.66,290.66,1012.24,294.08,1008.02,294.08z"/>
		<path class="st1" d="M1094.85,294.08h-31.8c-4.22,0-7.65-3.42-7.67-7.64V102.81c0.08-4.18,3.49-7.53,7.67-7.53h31.91    c4.12,0.08,7.45,3.4,7.53,7.53v6.81c12.26-11.81,28.72-17.72,49.6-17.72c4.22,0,7.64,3.42,7.64,7.64v0v33.49    c0.01,2.09-0.84,4.1-2.36,5.54c-1.52,1.5-3.62,2.27-5.74,2.1c-12.69-1.02-25.28,2.84-35.21,10.8    c-9.45,7.61-14.05,20.11-14.05,37.71v97.26C1102.37,290.62,1099.02,294.02,1094.85,294.08z"/>
		<path class="st1" d="M1697.26,294.08h-31.94c-4.22,0.03-7.67-3.36-7.7-7.58c0-0.02,0-0.04,0-0.06V18.54    c0-4.22,3.42-7.64,7.64-7.64c0.02,0,0.04,0,0.06,0h31.94c4.22,0,7.64,3.42,7.64,7.64v267.9    C1704.9,290.66,1701.48,294.08,1697.26,294.08z"/>
		<path class="st1" d="M1812.52,298.85c-37.97,0-67.9-17.84-80.11-47.68c-1.47-3.55-0.07-7.64,3.27-9.54l27.52-15.77    c3.66-2.11,8.33-0.85,10.43,2.81c0.25,0.44,0.46,0.9,0.62,1.39c4.88,14.68,19.19,23.41,38.26,23.41    c10.71,0,28.72-2.24,28.72-17.23c0-10.34-16.54-16.43-30.45-19.7l-1.06-0.29c-30.04-7.99-71.23-18.93-71.23-63.19    c-0.28-17.47,7.48-34.1,21.05-45.1c13.9-11.49,31.22-17.23,51.56-17.23c32.57,0,59.83,15.88,72.9,42.45    c1.81,3.64,0.44,8.06-3.1,10.05l-26.8,15.02c-3.64,2.07-8.27,0.81-10.34-2.83c-0.16-0.28-0.3-0.57-0.43-0.88    c-5.4-12.81-15.63-18.78-32.23-18.78c-11.49,0-25.02,4.42-25.02,16.92c0,8.01,9.68,14.36,30.5,20.11    c23.73,5.17,72.7,15.97,72.24,63.65c0.34,18.03-8.01,35.13-22.43,45.96C1852.05,293.25,1833.92,298.85,1812.52,298.85z"/>
		<path class="st1" d="M1610.17,95.29h-31.91c-4.18,0-7.58,3.35-7.64,7.53v10.43c-16.06-15.17-36.74-22.98-61.73-22.98    c-26.51-0.26-51.94,10.53-70.17,29.79l-1.03,1.01c-19.22,19.66-29.76,46.19-29.27,73.67c0,0.34,0,0.66,0,1.01    c-0.25,27.21,10.26,53.41,29.24,72.9c18.39,19.7,44.26,30.69,71.2,30.25c1.24,0,2.41,0,3.62,0c23.38-0.69,42.85-8.3,58.11-22.72    v10.4c0,4.22,3.42,7.64,7.64,7.64h31.91c0.71-0.04,1.4-0.18,2.07-0.43c3.27-0.88,5.55-3.83,5.57-7.21V102.81    C1617.72,98.65,1614.33,95.3,1610.17,95.29z M1570.53,195.82c0.15,15-5.63,29.45-16.08,40.21c-0.12,0.14-0.24,0.28-0.34,0.43    c-10.84,10.96-25.75,16.91-41.16,16.43h-0.43c-15.09,0.29-29.63-5.64-40.21-16.4c-10.71-10.78-16.65-25.41-16.49-40.61    c0-0.34,0-0.66,0-1.01c-0.48-15.43,5.5-30.35,16.49-41.19l0,0c22.73-22.38,59.22-22.38,81.95,0    c10.91,10.82,16.84,25.69,16.37,41.05c0,0.32-0.09,0.63-0.09,0.98V195.82z"/>
		<path class="st1" d="M1389.32,194.73c0-0.49,0-0.98,0-1.46c0.09-26.94-10.42-52.84-29.27-72.1    c-18.34-19.81-44.21-30.94-71.2-30.62h-2.87c-23.75,0.57-43.49,8.19-58.91,22.78v-10.37c0-4.22-3.42-7.64-7.64-7.64l0,0h-31.85    c-3.26,0.02-6.15,2.12-7.15,5.23c-0.31,0.77-0.49,1.58-0.52,2.41v256.9c0.02,4.22,3.44,7.64,7.67,7.64h31.91    c4.22,0,7.64-3.42,7.64-7.64v0v-83.79c16.03,15.14,36.71,22.81,61.73,22.81c24.09,0.39,47.43-8.41,65.26-24.62    c2.01-1.81,4.02-3.62,5.95-5.74c18.96-19.51,29.46-45.7,29.24-72.9c0-0.34,0-0.69,0-1.03L1389.32,194.73z M1342.04,195.82    c0.15,15.18-5.76,29.79-16.43,40.59c-1.65,1.51-3.37,2.94-5.17,4.28c-23.13,17.69-55.71,15.89-76.75-4.25    c-10.71-10.78-16.65-25.41-16.49-40.61c0-0.34,0-0.66,0-1.03c-0.27-12.88,3.92-25.45,11.86-35.59c1.44-2.01,3.01-3.93,4.68-5.74    c10.72-11.16,25.67-17.25,41.13-16.75h1.23c14.96-0.15,29.31,5.93,39.61,16.77c10.61,10.46,16.52,24.77,16.4,39.67    c0,0.49,0,0.98,0,1.46l0,0c0,0.46-0.09,0.78-0.09,1.12V195.82z"/>
	</g>
</g>
</svg>